<svg width="100" height="100" viewBox="0 0 100 100" fill="none" xmlns="http://www.w3.org/2000/svg">
<path d="M84.6851 33.76H15.3149C14.6678 33.76 14.1431 33.2353 14.1431 32.5882V8.24711C14.1431 7.59998 14.6678 7.07532 15.3149 7.07532H84.6851C85.3323 7.07532 85.8571 7.59998 85.8571 8.24711V32.5882C85.8569 33.2353 85.3323 33.76 84.6851 33.76ZM16.4867 31.4162H83.5132V9.4189H16.4867V31.4162Z" fill="#44C697"/>
<path d="M79.3066 33.7601H20.693C20.0459 33.7601 19.5212 33.2354 19.5212 32.5883V13.6254C19.5212 12.9783 20.0459 12.4536 20.693 12.4536H79.3066C79.9538 12.4536 80.4786 12.9783 80.4786 13.6254V32.5881C80.4786 33.2354 79.9539 33.7601 79.3066 33.7601ZM21.865 31.4163H78.1349V14.7974H21.865V31.4163Z" fill="#44C697"/>
<path d="M46.4656 33.76H24.2274C21.6295 33.7572 19.5242 31.6518 19.5212 29.054V17.1597C19.5241 14.5617 21.6295 12.4565 24.2274 12.4534H46.4656C49.0636 12.4563 51.1689 14.5617 51.1719 17.1597V29.054C51.1689 31.6519 49.0636 33.7572 46.4656 33.76ZM24.2274 14.7974C22.9234 14.7989 21.8665 15.8556 21.8649 17.1599V29.0541C21.8665 30.3582 22.9232 31.4151 24.2274 31.4165H46.4656C47.7697 31.4151 48.8266 30.3582 48.8281 29.0541V17.1599C48.8266 15.8558 47.7699 14.7989 46.4656 14.7974H24.2274Z" fill="#44C697"/>
<path d="M75.7723 33.76H53.5341C50.9361 33.7572 48.8309 31.6518 48.8278 29.054V17.1597C48.8307 14.5617 50.9361 12.4565 53.5341 12.4534H75.7723C78.3703 12.4563 80.4755 14.5617 80.4785 17.1597V29.054C80.4755 31.6519 78.3703 33.7572 75.7723 33.76ZM53.5341 14.7974C52.23 14.7989 51.1731 15.8556 51.1716 17.1599V29.0541C51.1731 30.3582 52.2299 31.4151 53.5341 31.4165H75.7723C77.0763 31.4151 78.1333 30.3582 78.1348 29.0541V17.1599C78.1333 15.8558 77.0765 14.7989 75.7723 14.7974H53.5341Z" fill="#44C697"/>
<path d="M85.5331 92.9248H14.4667C11.8689 92.9218 9.76366 90.8167 9.76062 88.2187V36.1223C9.76366 33.5245 11.8689 31.4193 14.4667 31.4163H85.5331C88.131 31.4191 90.2363 33.5244 90.2393 36.1223V88.2187C90.2363 90.8165 88.131 92.9218 85.5331 92.9248ZM14.4667 33.76C13.1627 33.7614 12.1057 34.8183 12.1042 36.1223V88.2187C12.1057 89.5228 13.1625 90.5795 14.4667 90.5811H85.5331C86.8371 90.5795 87.8939 89.5228 87.8954 88.2187V36.1223C87.8939 34.8183 86.8371 33.7614 85.5331 33.76H14.4667Z" fill="#44C697"/>
<path d="M85.9842 9.41893H14.0157C11.6667 9.41623 9.76332 7.51268 9.76062 5.16386V4.25507C9.76332 1.90625 11.6667 0.00270271 14.0157 0H85.9842C88.3332 0.00270271 90.2366 1.90625 90.2393 4.25507V5.16386C90.2366 7.51285 88.3331 9.41623 85.9842 9.41893ZM14.0157 2.34375C12.9606 2.34494 12.1056 3.20001 12.1044 4.25507V5.16386C12.1056 6.21893 12.9606 7.074 14.0157 7.07518H85.9842C87.0393 7.074 87.8944 6.21893 87.8956 5.16386V4.25507C87.8944 3.20001 87.0393 2.34494 85.9842 2.34375H14.0157Z" fill="#44C697"/>
<path d="M85.9842 99.9999H14.0157C11.6667 99.9972 9.76332 98.0937 9.76062 95.7448V94.8361C9.76332 92.4871 11.6669 90.5837 14.0157 90.581H85.9842C88.3332 90.5837 90.2366 92.4872 90.2393 94.8361V95.7448C90.2366 98.0937 88.3331 99.9972 85.9842 99.9999ZM14.0157 92.9247C12.9606 92.9259 12.1056 93.781 12.1044 94.8361V95.7448C12.1056 96.7999 12.9606 97.655 14.0157 97.6562H85.9842C87.0393 97.655 87.8944 96.7999 87.8956 95.7448V94.8361C87.8944 93.781 87.0393 92.9259 85.9842 92.9247H14.0157Z" fill="#44C697"/>
</svg>
