<svg width="40" height="40" viewBox="0 0 40 40" fill="none" xmlns="http://www.w3.org/2000/svg">
<path fill-rule="evenodd" clip-rule="evenodd" d="M15.6027 9.3977C16.7405 9.34592 17.1041 9.33325 20.001 9.33325H19.9976C22.8955 9.33325 23.2577 9.34592 24.3955 9.3977C25.531 9.4497 26.3066 9.62948 26.9866 9.89326C27.6888 10.1655 28.2822 10.5299 28.8755 11.1233C29.4689 11.7162 29.8333 12.3113 30.1066 13.0128C30.3689 13.6911 30.5489 14.4662 30.6022 15.6018C30.6533 16.7396 30.6666 17.1031 30.6666 20C30.6666 22.8969 30.6533 23.2596 30.6022 24.3974C30.5489 25.5325 30.3689 26.3079 30.1066 26.9863C29.8333 27.6877 29.4689 28.2828 28.8755 28.8757C28.2828 29.469 27.6886 29.8344 26.9873 30.1068C26.3086 30.3706 25.5326 30.5504 24.397 30.6024C23.2592 30.6541 22.8968 30.6668 19.9996 30.6668C17.1029 30.6668 16.7396 30.6541 15.6018 30.6024C14.4665 30.5504 13.6911 30.3706 13.0125 30.1068C12.3113 29.8344 11.7162 29.469 11.1236 28.8757C10.5304 28.2828 10.166 27.6877 9.89332 26.9861C9.62976 26.3079 9.44998 25.5328 9.39776 24.3972C9.3462 23.2594 9.33331 22.8969 9.33331 20C9.33331 17.1031 9.34665 16.7393 9.39754 15.6015C9.44865 14.4664 9.62865 13.6911 9.8931 13.0126C10.1664 12.3113 10.5309 11.7162 11.1242 11.1233C11.7171 10.5302 12.3122 10.1657 13.0138 9.89326C13.692 9.62948 14.4671 9.4497 15.6027 9.3977ZM19.6455 11.2554C19.4298 11.2553 19.2299 11.2552 19.0441 11.2555V11.2528C17.0561 11.2551 16.6748 11.2684 15.6908 11.3128C14.6507 11.3606 14.0861 11.534 13.7101 11.6806C13.2123 11.8744 12.8567 12.1055 12.4834 12.4789C12.1101 12.8522 11.8785 13.2078 11.6852 13.7055C11.5392 14.0815 11.3654 14.646 11.3178 15.686C11.2667 16.8105 11.2565 17.1465 11.2565 19.9949C11.2565 22.8434 11.2667 23.1812 11.3178 24.3057C11.3652 25.3457 11.5392 25.9101 11.6852 26.2857C11.8789 26.7837 12.1101 27.1383 12.4834 27.5117C12.8567 27.885 13.2123 28.1161 13.7101 28.3095C14.0863 28.4555 14.6507 28.6293 15.6908 28.6773C16.8152 28.7284 17.1528 28.7395 20.001 28.7395C22.8491 28.7395 23.1868 28.7284 24.3113 28.6773C25.3513 28.6297 25.9162 28.4564 26.2918 28.3097C26.7898 28.1164 27.1442 27.8852 27.5175 27.5119C27.8909 27.1388 28.1224 26.7843 28.3158 26.2866C28.4618 25.911 28.6356 25.3465 28.6831 24.3065C28.7342 23.1821 28.7453 22.8443 28.7453 19.9976C28.7453 17.1509 28.7342 16.8131 28.6831 15.6887C28.6358 14.6487 28.4618 14.0842 28.3158 13.7087C28.122 13.2109 27.8909 12.8553 27.5175 12.482C27.1444 12.1086 26.7895 11.8775 26.2918 11.6842C25.9158 11.5382 25.3513 11.3644 24.3113 11.3168C23.1866 11.2657 22.8491 11.2555 20.001 11.2555L19.6455 11.2554ZM14.5232 19.9999C14.5232 16.9747 16.9759 14.5221 20.001 14.5221C23.0261 14.5222 25.478 16.9748 25.478 19.9999C25.478 23.025 23.0262 25.4766 20.001 25.4766C16.9759 25.4766 14.5232 23.025 14.5232 19.9999ZM23.5566 20.0002C23.5566 18.0364 21.9645 16.4446 20.001 16.4446C18.0372 16.4446 16.4454 18.0364 16.4454 20.0002C16.4454 21.9637 18.0372 23.5558 20.001 23.5558C21.9645 23.5558 23.5566 21.9637 23.5566 20.0002ZM24.4149 14.3063C24.4149 13.5994 24.9883 13.0267 25.695 13.0267V13.0263C26.4016 13.0263 26.975 13.5996 26.975 14.3063C26.975 15.013 26.4016 15.5863 25.695 15.5863C24.9883 15.5863 24.4149 15.013 24.4149 14.3063Z" fill="#1E2E36"/>
</svg>
