<svg width="100" height="100" viewBox="0 0 100 100" fill="none" xmlns="http://www.w3.org/2000/svg">
<g clip-path="url(#clip0)">
<path d="M67.7879 91.1304H32.212C31.5649 91.1304 31.0402 90.6057 31.0402 89.9584V62.7136C31.0402 62.0665 31.5649 61.5416 32.212 61.5416H67.7879C68.435 61.5416 68.9599 62.0663 68.9599 62.7136V89.9584C68.9597 90.6057 68.435 91.1304 67.7879 91.1304ZM33.384 88.7866H66.6161V63.8855H33.384V88.7866Z" fill="#1E2E36"/>
<path d="M67.7879 96.1447H32.212C31.5649 96.1447 31.0402 95.6201 31.0402 94.9728V89.9584C31.0402 89.3113 31.5649 88.7864 32.212 88.7864H67.7879C68.435 88.7864 68.9599 89.3111 68.9599 89.9584V94.9728C68.9597 95.6201 68.435 96.1447 67.7879 96.1447ZM33.384 93.801H66.6161V91.1304H33.384V93.801Z" fill="#1E2E36"/>
<path d="M67.7879 63.8855H32.212C31.5649 63.8855 31.0402 63.3608 31.0402 62.7137V51.1623C31.0402 50.5152 31.5649 49.9904 32.212 49.9904H67.7879C68.435 49.9904 68.9599 50.515 68.9599 51.1623V62.7137C68.9597 63.3608 68.435 63.8855 67.7879 63.8855ZM33.384 61.5417H66.6161V52.3341H33.384V61.5417Z" fill="#1E2E36"/>
<path d="M49.9999 60.7356C47.9024 60.7356 46.2021 59.0352 46.2021 56.9379C46.2021 54.8406 47.9024 53.1401 49.9997 53.1401C52.0972 53.1401 53.7975 54.8405 53.7975 56.9378C53.7954 59.0344 52.0964 60.7332 49.9999 60.7356ZM49.9999 55.4839C49.1969 55.4839 48.5458 56.1349 48.5458 56.9378C48.5458 57.7408 49.1969 58.3918 49.9997 58.3918C50.8028 58.3918 51.4538 57.7408 51.4538 56.9379C51.4531 56.1352 50.8026 55.4847 49.9999 55.4839Z" fill="#1E2E36"/>
<path d="M59.8668 60.7356C57.7694 60.7356 56.069 59.0352 56.069 56.9379C56.069 54.8405 57.7694 53.1401 59.8667 53.1401C61.9641 53.1401 63.6645 54.8405 63.6645 56.9378C63.6623 59.0344 61.9633 60.7332 59.8668 60.7356ZM59.8668 55.4839C59.0638 55.4839 58.4128 56.1349 58.4128 56.9378C58.4128 57.7408 59.0638 58.3918 59.8667 58.3918C60.6697 58.3918 61.3207 57.7408 61.3207 56.9379C61.3199 56.1352 60.6695 55.4849 59.8668 55.4839Z" fill="#1E2E36"/>
<path d="M40.133 60.7357C38.0355 60.7357 36.3351 59.0354 36.3351 56.9379C36.3351 54.8404 38.0355 53.1401 40.133 53.1401C42.2304 53.1401 43.9308 54.8404 43.9308 56.9379C43.9284 59.0345 42.2294 60.7333 40.133 60.7357ZM40.133 55.484C39.3299 55.484 38.6789 56.135 38.6789 56.9381C38.6789 57.7411 39.3299 58.3921 40.133 58.3921C40.936 58.3921 41.587 57.7411 41.587 56.9381C41.5862 56.1353 40.9357 55.4848 40.133 55.484Z" fill="#1E2E36"/>
<path d="M60.9086 70.7369H39.0915C37.5693 70.7362 36.3359 69.5019 36.3365 67.9798C36.3372 66.4585 37.5702 65.2254 39.0915 65.2249H60.9086C62.4307 65.2242 63.6651 66.4577 63.6656 67.9798C63.6663 69.5019 62.4329 70.7364 60.9107 70.7369C60.9099 70.7369 60.9092 70.7369 60.9086 70.7369ZM39.0915 67.5685C38.8637 67.5687 38.6793 67.7535 38.6795 67.9812C38.6796 68.2087 38.8639 68.393 39.0915 68.3932H60.9086C61.1363 68.3933 61.3211 68.2089 61.3212 67.9812C61.3214 67.7535 61.1369 67.5687 60.9092 67.5685C60.9091 67.5685 60.9087 67.5685 60.9086 67.5685H39.0915Z" fill="#1E2E36"/>
<path d="M59.8668 87.3889H40.133C39.4858 87.3889 38.9612 86.8643 38.9612 86.217V69.5647C38.9612 68.9176 39.4858 68.3928 40.133 68.3928H59.8668C60.5139 68.3928 61.0386 68.9174 61.0386 69.5647V86.217C61.0388 86.8643 60.5141 87.3889 59.8668 87.3889ZM41.3049 85.0452H58.695V70.7367H41.3049V85.0452Z" fill="#1E2E36"/>
<path d="M42.1911 52.3341C41.544 52.3341 41.0193 51.8095 41.0193 51.1622V48.2542C41.0193 47.6071 41.544 47.0823 42.1911 47.0823C42.8383 47.0823 43.3631 47.6069 43.3631 48.2542V51.1622C43.3631 51.8095 42.8384 52.3341 42.1911 52.3341Z" fill="#1E2E36"/>
<path d="M47.7467 52.3342C47.0995 52.3342 46.5749 51.8096 46.5749 51.1623V49.426H45.0124C44.3652 49.426 43.8404 48.9013 43.8404 48.254C43.8404 47.6067 44.3651 47.082 45.0124 47.082H47.7467C48.3938 47.082 48.9186 47.6067 48.9186 48.254V51.1623C48.9184 51.8096 48.3938 52.3342 47.7467 52.3342Z" fill="#1E2E36"/>
<path d="M36.6355 52.3342C35.9884 52.3342 35.4636 51.8096 35.4636 51.1623V48.254C35.4636 47.6069 35.9882 47.082 36.6355 47.082H39.3698C40.017 47.082 40.5416 47.6067 40.5416 48.254C40.5416 48.9013 40.017 49.426 39.3698 49.426H37.8073V51.1623C37.8075 51.8096 37.2828 52.3342 36.6355 52.3342Z" fill="#1E2E36"/>
<path d="M57.8089 52.3341C57.1617 52.3341 56.6369 51.8095 56.6369 51.1622V48.2542C56.6369 47.6071 57.1616 47.0823 57.8089 47.0823C58.4562 47.0823 58.9806 47.6069 58.9806 48.2542V51.1622C58.9806 51.8095 58.456 52.3341 57.8089 52.3341Z" fill="#1E2E36"/>
<path d="M52.2533 52.3342C51.6062 52.3342 51.0814 51.8096 51.0814 51.1623V48.254C51.0814 47.6069 51.606 47.082 52.2533 47.082H54.9876C55.6348 47.082 56.1596 47.6067 56.1596 48.254C56.1596 48.9013 55.6349 49.426 54.9876 49.426H53.4251V51.1623C53.4253 51.8096 52.9006 52.3342 52.2533 52.3342Z" fill="#1E2E36"/>
<path d="M63.3645 52.3342C62.7173 52.3342 62.1927 51.8096 62.1927 51.1623V49.426H60.6302C59.983 49.426 59.4584 48.9013 59.4584 48.254C59.4584 47.6067 59.983 47.082 60.6302 47.082H63.3645C64.0116 47.082 64.5364 47.6067 64.5364 48.254V51.1623C64.5362 51.8096 64.0116 52.3342 63.3645 52.3342Z" fill="#1E2E36"/>
<path d="M73.452 56.6019H71.3542C70.7071 56.6019 70.1824 56.0773 70.1824 55.4301C70.1824 54.783 70.7071 54.2582 71.3542 54.2582H73.4522C74.0993 54.2582 74.624 54.7828 74.624 55.4301C74.624 56.0774 74.0993 56.6019 73.452 56.6019Z" fill="#1E2E36"/>
<path d="M77.0183 96.1447H67.788C67.1409 96.1447 66.6162 95.62 66.6162 94.9727V51.1622C66.6162 50.515 67.1409 49.9904 67.788 49.9904H77.0183C77.6654 49.9904 78.1902 50.515 78.1902 51.1622V94.9727C78.1901 95.62 77.6654 96.1447 77.0183 96.1447ZM68.9598 93.8009H75.8463V52.3341H68.9598V93.8009Z" fill="#1E2E36"/>
<path d="M98.828 74.2394H77.0182C76.3711 74.2394 75.8464 73.7147 75.8464 73.0676V51.1623C75.8464 50.5152 76.3711 49.9904 77.0182 49.9904H98.8282C99.4754 49.9904 100 50.515 100 51.1623V73.0676C100 73.7147 99.4753 74.2394 98.828 74.2394ZM78.19 71.8956H97.6563V52.3341H78.19V71.8956Z" fill="#1E2E36"/>
<path d="M90.7336 56.6019H85.1128C84.4656 56.6019 83.941 56.0773 83.941 55.4301C83.941 54.783 84.4656 54.2582 85.1128 54.2582H90.7336C91.3807 54.2582 91.9055 54.7828 91.9055 55.4301C91.9055 56.0774 91.3807 56.6019 90.7336 56.6019Z" fill="#1E2E36"/>
<path d="M19.5024 56.6019H13.8816C13.2345 56.6019 12.7098 56.0773 12.7098 55.4301C12.7098 54.783 13.2345 54.2582 13.8816 54.2582H19.5022C20.1494 54.2582 20.674 54.7828 20.674 55.4301C20.674 56.0774 20.1495 56.6019 19.5024 56.6019Z" fill="#1E2E36"/>
<path d="M98.828 96.1447H77.0182C76.3711 96.1447 75.8464 95.62 75.8464 94.9727V73.0676C75.8464 72.4205 76.3711 71.8956 77.0182 71.8956H98.8282C99.4754 71.8956 100 72.4203 100 73.0676V94.9727C100 95.62 99.4753 96.1447 98.828 96.1447ZM78.19 93.8009H97.6563V74.2394H78.19V93.8009Z" fill="#1E2E36"/>
<path d="M90.7336 78.5071H85.1128C84.4656 78.5071 83.941 77.9824 83.941 77.3351C83.941 76.688 84.4656 76.1633 85.1128 76.1633H90.7336C91.3807 76.1633 91.9055 76.688 91.9055 77.3351C91.9054 77.9824 91.3807 78.5071 90.7336 78.5071Z" fill="#1E2E36"/>
<path d="M16.6919 96.1447H1.17179C0.524663 96.1447 0 95.6201 0 94.9728V62.7136C0 62.0665 0.524663 61.5416 1.17179 61.5416H16.6919C17.3391 61.5416 17.8637 62.0663 17.8637 62.7136V94.9728C17.8639 95.6201 17.3392 96.1447 16.6919 96.1447ZM2.34375 93.801H15.5201V63.8855H2.34375V93.801Z" fill="#1E2E36"/>
<path d="M32.2121 96.1447H16.6919C16.0448 96.1447 15.5201 95.6201 15.5201 94.9728V62.7136C15.5201 62.0665 16.0448 61.5416 16.6919 61.5416H32.2121C32.8592 61.5416 33.3839 62.0663 33.3839 62.7136V94.9728C33.384 95.6201 32.8594 96.1447 32.2121 96.1447ZM17.8639 93.801H31.0403V63.8855H17.8639V93.801Z" fill="#1E2E36"/>
<path d="M20.3975 81.9656C19.7504 81.9656 19.2257 81.4409 19.2257 80.7938V76.8928C19.2257 76.2457 19.7504 75.721 20.3975 75.721C21.0446 75.721 21.5693 76.2457 21.5693 76.8928V80.794C21.5693 81.4409 21.0446 81.9656 20.3975 81.9656Z" fill="#1E2E36"/>
<path d="M12.9865 81.9656C12.3394 81.9656 11.8147 81.4409 11.8147 80.7938V76.8928C11.8147 76.2457 12.3394 75.721 12.9865 75.721C13.6336 75.721 14.1583 76.2457 14.1583 76.8928V80.794C14.1583 81.4409 13.6336 81.9656 12.9865 81.9656Z" fill="#1E2E36"/>
<path d="M32.212 63.8855H1.17179C0.524663 63.8855 0 63.3608 0 62.7137V51.1623C0 50.5152 0.524663 49.9904 1.17179 49.9904H32.212C32.8592 49.9904 33.3838 50.515 33.3838 51.1623V62.7137C33.384 63.3608 32.8593 63.8855 32.212 63.8855ZM2.34375 61.5417H31.0403V52.3341H2.34375V61.5417Z" fill="#1E2E36"/>
<path d="M66.4668 27.7769H33.5331C32.1569 27.7754 31.0417 26.6602 31.0402 25.284V21.9186C31.0417 20.5425 32.1569 19.4274 33.5331 19.4259H66.467C67.8432 19.4274 68.9584 20.5426 68.9599 21.9188V25.2842C68.9584 26.6602 67.843 27.7754 66.4668 27.7769ZM33.5331 21.7695C33.4509 21.7697 33.3841 21.8364 33.384 21.9186V25.284C33.3841 25.3663 33.4509 25.433 33.5331 25.4332H66.467C66.5492 25.433 66.616 25.3663 66.6161 25.284V21.9186C66.616 21.8364 66.5492 21.7697 66.467 21.7695H33.5331Z" fill="#1E2E36"/>
<path d="M64.024 21.7695H35.9758C34.6122 21.7695 33.5066 20.6641 33.5064 19.3004C33.5064 18.5408 33.8559 17.8236 34.4542 17.3555L35.3547 16.6509C38.9409 13.8626 41.0328 9.57002 41.0191 5.02744C41.0191 4.38031 41.5438 3.85565 42.1909 3.85565H57.8087C58.4558 3.85565 58.9804 4.38031 58.9804 5.02744C58.9668 9.57002 61.0587 13.8626 64.645 16.6509L65.5453 17.3555C66.6195 18.1957 66.8092 19.7476 65.969 20.8216C65.5012 21.42 64.7837 21.7697 64.024 21.7695ZM43.3237 6.19924C43.0059 11.0425 40.6311 15.5183 36.799 18.4969L35.8983 19.2015C35.8437 19.2442 35.8341 19.3231 35.8769 19.3776C35.9007 19.408 35.9372 19.4258 35.9757 19.4258H64.024C64.0933 19.4258 64.1495 19.3695 64.1495 19.3003C64.1495 19.2618 64.1318 19.2253 64.1016 19.2016H64.1014L63.2011 18.4971C59.3688 15.5185 56.9941 11.0427 56.6764 6.19941H43.3237V6.19924Z" fill="#1E2E36"/>
<path d="M95.2004 27.777H76.5517C74.9297 27.777 73.6147 26.4621 73.6147 24.84C73.6147 23.2178 74.9296 21.903 76.5517 21.903H95.2004C96.8223 21.903 98.1374 23.2178 98.1374 24.84C98.1374 26.4621 96.8223 27.777 95.2004 27.777ZM76.5517 24.2469C76.2241 24.2469 75.9584 24.5124 75.9584 24.8401C75.9584 25.1677 76.224 25.4334 76.5517 25.4334H95.2004C95.5279 25.4334 95.7936 25.1678 95.7936 24.8401C95.7936 24.5126 95.5281 24.2469 95.2004 24.2469H76.5517Z" fill="#1E2E36"/>
<path d="M23.4483 27.777H4.79967C3.17771 27.777 1.86267 26.4621 1.86267 24.84C1.86267 23.2178 3.17754 21.903 4.79967 21.903H23.4483C25.0703 21.903 26.3853 23.2178 26.3853 24.84C26.3853 26.4621 25.0705 27.777 23.4483 27.777ZM4.79967 24.2469C4.47213 24.2469 4.20642 24.5124 4.20642 24.8401C4.20642 25.1677 4.47197 25.4334 4.79967 25.4334H23.4483C23.7759 25.4334 24.0416 25.1678 24.0416 24.8401C24.0416 24.5126 23.776 24.2469 23.4483 24.2469H4.79967Z" fill="#1E2E36"/>
<path d="M21.5774 24.2469H16.8103C16.1632 24.2469 15.6385 23.7223 15.6385 23.0751V19.0462C15.6385 18.3991 16.1632 17.8745 16.8103 17.8745H21.5774C22.2245 17.8745 22.7492 18.3991 22.7492 19.0462V23.0751C22.7494 23.7223 22.2247 24.2469 21.5774 24.2469ZM17.9823 21.9032H20.4056V20.218H17.9823V21.9032Z" fill="#1E2E36"/>
<path d="M22.7005 20.218H15.6874C15.0402 20.218 14.5156 19.6934 14.5156 19.0462C14.5156 18.3991 15.0402 17.8745 15.6874 17.8745H22.7005C23.3477 17.8745 23.8723 18.3991 23.8723 19.0462C23.8723 19.6934 23.3477 20.218 22.7005 20.218Z" fill="#1E2E36"/>
<path d="M11.4376 24.2469H6.67051C6.02338 24.2469 5.49872 23.7223 5.49872 23.0751V19.0462C5.49872 18.3991 6.02338 17.8745 6.67051 17.8745H11.4376C12.0847 17.8745 12.6094 18.3991 12.6094 19.0462V23.0751C12.6094 23.7223 12.0847 24.2469 11.4376 24.2469ZM7.8423 21.9032H10.2656V20.218H7.84247L7.8423 21.9032Z" fill="#1E2E36"/>
<path d="M12.5605 20.218H5.54752C4.9004 20.218 4.37573 19.6934 4.37573 19.0462C4.37573 18.3991 4.9004 17.8745 5.54752 17.8745H12.5607C13.2078 17.8745 13.7325 18.3991 13.7325 19.0462C13.7325 19.6934 13.2078 20.218 12.5605 20.218Z" fill="#1E2E36"/>
<path d="M21.5774 20.2179H16.8103C16.1632 20.2179 15.6385 19.6933 15.6385 19.0462V15.0174C15.6385 14.3703 16.1632 13.8456 16.8103 13.8456H21.5774C22.2245 13.8456 22.7492 14.3703 22.7492 15.0174V19.0462C22.7494 19.6933 22.2247 20.2179 21.5774 20.2179ZM17.9823 17.8742H20.4056V16.1892H17.9823V17.8742Z" fill="#1E2E36"/>
<path d="M22.7005 16.1892H15.6874C15.0402 16.1892 14.5156 15.6646 14.5156 15.0174C14.5156 14.3703 15.0402 13.8456 15.6874 13.8456H22.7005C23.3477 13.8456 23.8723 14.3703 23.8723 15.0174C23.8723 15.6646 23.3477 16.1892 22.7005 16.1892Z" fill="#1E2E36"/>
<path d="M11.4376 20.2179H6.67051C6.02338 20.2179 5.49872 19.6933 5.49872 19.0462V15.0174C5.49872 14.3703 6.02338 13.8456 6.67051 13.8456H11.4376C12.0847 13.8456 12.6094 14.3703 12.6094 15.0174V19.0462C12.6094 19.6933 12.0847 20.2179 11.4376 20.2179ZM7.8423 17.8742H10.2656V16.1892H7.84247L7.8423 17.8742Z" fill="#1E2E36"/>
<path d="M12.5605 16.1892H5.54752C4.9004 16.1892 4.37573 15.6646 4.37573 15.0174C4.37573 14.3703 4.9004 13.8456 5.54752 13.8456H12.5607C13.2078 13.8456 13.7325 14.3703 13.7325 15.0174C13.7325 15.6646 13.2078 16.1892 12.5605 16.1892Z" fill="#1E2E36"/>
<path d="M85.876 24.247C81.6985 24.2463 78.3123 20.8592 78.313 16.6816C78.3132 15.2588 78.7147 13.8647 79.4714 12.6598C79.686 12.3191 80.0605 12.1124 80.4632 12.1124H91.2887C91.6912 12.1124 92.0655 12.319 92.2801 12.6597C94.502 16.1972 93.4355 20.8663 89.898 23.0882C88.6931 23.8452 87.299 24.2467 85.876 24.247ZM81.1547 14.4561C79.9263 17.0637 81.0444 20.1734 83.652 21.4017C86.2596 22.6301 89.3692 21.512 90.5976 18.9044C91.2611 17.496 91.2611 15.8647 90.5976 14.4563H81.1547V14.4561Z" fill="#1E2E36"/>
<path d="M85.7668 14.4561C85.1197 14.4561 84.5948 13.9314 84.5948 13.2843V5.74473C84.5948 5.0976 85.1195 4.57294 85.7668 4.57294C86.4141 4.57294 86.9386 5.0976 86.9386 5.74473V13.2843C86.9386 13.9314 86.4139 14.4561 85.7668 14.4561Z" fill="#1E2E36"/>
<path d="M85.7668 14.4561C85.1197 14.4561 84.595 13.9313 84.595 13.2841C84.595 12.9733 84.7185 12.6754 84.9383 12.4556L88.9934 8.40051C89.4555 7.94747 90.1976 7.95507 90.6506 8.41724C91.0972 8.87298 91.0973 9.6022 90.6505 10.0578L86.5954 14.1129C86.3758 14.333 86.0776 14.4566 85.7668 14.4561Z" fill="#1E2E36"/>
<path d="M85.7669 14.4561C85.4561 14.4564 85.1578 14.333 84.9383 14.1129L80.8832 10.0578C80.4207 9.60508 80.4128 8.86302 80.8657 8.40052C81.3184 7.93802 82.0604 7.93008 82.5229 8.38295C82.5289 8.38869 82.5346 8.3946 82.5405 8.40052L86.5956 12.4556C87.0532 12.9132 87.0532 13.6553 86.5956 14.1129C86.3757 14.3326 86.0775 14.4561 85.7669 14.4561Z" fill="#1E2E36"/>
<path d="M60.8572 49.426H55.1422C51.9016 49.4223 49.2756 46.7963 49.2719 43.5557V40.801C49.2719 40.1539 49.7966 39.629 50.4439 39.629H65.5556C66.2027 39.629 66.7275 40.1537 66.7275 40.801V43.5557C66.7238 46.7963 64.0978 49.4223 60.8572 49.426ZM51.6158 41.973V43.5559C51.618 45.5027 53.1956 47.0802 55.1424 47.0824H60.8574C62.8042 47.0802 64.3817 45.5027 64.3839 43.5559V41.973H51.6158Z" fill="#1E2E36"/>
<path d="M67.7879 44.0383H65.5555C64.9084 44.0383 64.3835 43.5137 64.3835 42.8666C64.3835 42.2194 64.9082 41.6948 65.5555 41.6948H67.7879C68.4351 41.6948 68.9599 42.2194 68.9599 42.8666C68.9599 43.5137 68.4351 44.0383 67.7879 44.0383Z" fill="#1E2E36"/>
<path d="M50.0623 44.0383H47.8298C47.1827 44.0383 46.658 43.5137 46.658 42.8666C46.658 42.2194 47.1827 41.6948 47.8298 41.6948H50.0623C50.7094 41.6948 51.2342 42.2194 51.2342 42.8666C51.2342 43.5137 50.7096 44.0383 50.0623 44.0383Z" fill="#1E2E36"/>
<path d="M65.5555 41.973H50.4439C49.7967 41.973 49.2719 41.4483 49.2719 40.8012C49.2719 40.5642 49.3437 40.3328 49.478 40.1373C51.1175 37.7517 54.3827 36.2698 57.9996 36.2698C61.6165 36.2698 64.8816 37.7517 66.5213 40.1373C66.8878 40.6706 66.7527 41.4004 66.2194 41.7669C66.0241 41.901 65.7927 41.973 65.5555 41.973ZM53.5907 39.6292H62.4088C59.6253 38.2747 56.3739 38.2747 53.5907 39.6292Z" fill="#1E2E36"/>
<path d="M56.5687 38.7025C56.2817 38.7028 56.0045 38.5974 55.7903 38.4062C54.4156 37.1858 54.2906 35.0819 55.5111 33.7071C56.7315 32.3324 58.8354 32.2074 60.2102 33.4278C61.5849 34.6483 61.7099 36.7522 60.4895 38.127C60.4021 38.2255 60.3089 38.3185 60.2104 38.406C59.7297 38.8393 58.9886 38.8008 58.5553 38.3201C58.1221 37.8393 58.1606 37.0983 58.6413 36.665C58.645 36.6616 58.6488 36.6582 58.6525 36.655C59.0602 36.2947 59.0986 35.6723 58.7384 35.2647C58.3781 34.8571 57.7557 34.8185 57.3481 35.1787C56.9405 35.539 56.902 36.1615 57.2621 36.5691C57.289 36.5995 57.3175 36.628 57.3479 36.6549C57.8315 37.0849 57.8749 37.8256 57.4449 38.3093C57.2222 38.5596 56.9035 38.7025 56.5687 38.7025Z" fill="#1E2E36"/>
<path d="M13.9029 52.3342H8.95304C8.30591 52.3342 7.78125 51.8096 7.78125 51.1623V38.5752C7.78125 37.9281 8.30591 37.4034 8.95304 37.4034H13.9029C14.55 37.4034 15.0747 37.9281 15.0747 38.5752V51.1623C15.0748 51.8096 14.5502 52.3342 13.9029 52.3342ZM10.125 49.9905H12.7311V39.7472H10.125V49.9905Z" fill="#1E2E36"/>
<path d="M8.95301 52.3342H4.00334C3.35621 52.3342 2.83154 51.8096 2.83154 51.1623V38.5752C2.83154 37.9281 3.35621 37.4034 4.00334 37.4034H8.95301C9.60014 37.4034 10.1248 37.9281 10.1248 38.5752V51.1623C10.125 51.8096 9.6003 52.3342 8.95301 52.3342ZM5.17513 49.9905H7.78104V39.7472H5.1753L5.17513 49.9905Z" fill="#1E2E36"/>
<path d="M24.7744 52.3342H22.5645C20.3283 52.3317 18.5163 50.5195 18.5136 48.2834V44.1744C18.5136 43.5273 19.0383 43.0024 19.6854 43.0024H27.6533C28.3005 43.0024 28.8251 43.5271 28.8251 44.1744V48.2834C28.8228 50.5195 27.0106 52.3317 24.7744 52.3342ZM20.8575 45.3462V48.2834C20.8585 49.2258 21.6222 49.9893 22.5646 49.9905H24.7744C25.7168 49.9894 26.4805 49.2258 26.4815 48.2834V45.3464H20.8575V45.3462Z" fill="#1E2E36"/>
<path d="M28.3386 45.346H19C17.778 45.3447 16.7878 44.3545 16.7864 43.1325V41.9171C16.7878 40.6952 17.7782 39.705 19 39.7036H28.3386C29.5606 39.705 30.5508 40.6952 30.5522 41.9171V43.1325C30.5508 44.3545 29.5606 45.3447 28.3386 45.346ZM19.1302 43.0023H28.2086V42.0474H19.1302V43.0023Z" fill="#1E2E36"/>
<path d="M77.9696 52.3341H71.9363C71.2892 52.3341 70.7645 51.8094 70.7645 51.1621V42.9155C70.7645 42.2684 71.2892 41.7435 71.9363 41.7435H77.9696C78.6167 41.7435 79.1416 42.2682 79.1416 42.9155V51.1621C79.1414 51.8094 78.6167 52.3341 77.9696 52.3341ZM73.1083 49.9903H76.7978V44.0875H73.1083V49.9903Z" fill="#1E2E36"/>
<path d="M77.9696 44.0875H71.9363C71.2892 44.0875 70.7645 43.5628 70.7645 42.9157V39.3133C70.7645 38.6662 71.2892 38.1414 71.9363 38.1414H77.9696C78.6167 38.1414 79.1416 38.666 79.1416 39.3133V42.9157C79.1414 43.5628 78.6167 44.0875 77.9696 44.0875ZM73.1083 41.7437H76.7978V40.4851H73.1083V41.7437Z" fill="#1E2E36"/>
<path d="M92.437 48.3708C90.5225 48.3708 89.0226 46.5278 89.0226 44.1749C89.0226 41.822 90.5223 39.9788 92.437 39.9788C94.3515 39.9788 95.8514 41.822 95.8514 44.1749C95.8514 46.5278 94.3515 48.3708 92.437 48.3708ZM92.437 42.3225C91.9316 42.3225 91.3664 43.1146 91.3664 44.1749C91.3664 45.235 91.9316 46.0271 92.437 46.0271C92.9424 46.0271 93.5076 45.235 93.5076 44.1749C93.5076 43.1147 92.9424 42.3225 92.437 42.3225Z" fill="#1E2E36"/>
<path d="M92.4369 42.3002C91.8907 42.3002 91.4167 41.9227 91.2947 41.3901L89.5037 33.5766C89.1324 31.9564 90.1445 30.3421 91.7646 29.9706C93.3847 29.5992 94.9991 30.6115 95.3706 32.2316C95.4721 32.6742 95.4721 33.134 95.3706 33.5766L93.5793 41.3901C93.457 41.9227 92.9832 42.3002 92.4369 42.3002ZM92.4369 32.2385C92.0694 32.2385 91.7712 32.5365 91.7712 32.9043C91.7712 32.9543 91.7768 33.0043 91.7881 33.0531L92.4369 35.8838L93.0859 33.0532C93.1682 32.695 92.9442 32.3377 92.5859 32.2556C92.5371 32.2441 92.4871 32.2385 92.4369 32.2385Z" fill="#1E2E36"/>
<path d="M84.0078 42.3001C83.4615 42.3001 82.9875 41.9226 82.8656 41.3901L81.0743 33.5766C80.7029 31.9565 81.7152 30.342 83.3353 29.9707C84.9554 29.5992 86.57 30.6116 86.9412 32.2317C87.0428 32.6742 87.0428 33.134 86.9412 33.5766L85.15 41.3901C85.0281 41.9227 84.5541 42.3001 84.0078 42.3001ZM84.0078 32.2384C83.6401 32.2384 83.3421 32.5364 83.3421 32.9041C83.3421 32.9543 83.3477 33.0041 83.359 33.0531L84.0078 35.8839L84.6566 33.0531C84.7389 32.6947 84.5149 32.3376 84.1566 32.2555C84.1078 32.244 84.058 32.2384 84.0078 32.2384Z" fill="#1E2E36"/>
<path d="M86.7007 46.0876H81.315C80.7321 46.0876 80.2378 45.6591 80.1551 45.082C79.9527 43.7293 80.348 42.3555 81.238 41.317C81.9951 40.4435 83.0046 39.9425 84.0078 39.9425C85.011 39.9425 86.0208 40.4435 86.778 41.317C87.6679 42.3555 88.063 43.7295 87.8606 45.082C87.7779 45.6592 87.2836 46.0876 86.7007 46.0876ZM82.5355 43.7439H85.4804C85.3914 43.415 85.2296 43.1102 85.0069 42.8521C84.7089 42.5084 84.3169 42.2863 84.0078 42.2863C83.6986 42.2863 83.3067 42.5084 83.0089 42.8521C82.7865 43.1101 82.6245 43.415 82.5355 43.7439Z" fill="#1E2E36"/>
</g>
<defs>
<clipPath id="clip0">
<rect width="100" height="100" fill="white"/>
</clipPath>
</defs>
</svg>
