<svg width="100" height="100" viewBox="0 0 100 100" fill="none" xmlns="http://www.w3.org/2000/svg">
<path d="M46.6655 87.1791H16.7647C14.2771 87.1762 12.261 85.1603 12.2583 82.6726V71.0569C12.2612 68.5692 14.2771 66.5532 16.7647 66.5505H46.6655C49.1531 66.5533 51.1692 68.5692 51.1719 71.0569V82.6726C51.169 85.1603 49.1531 87.1764 46.6655 87.1791ZM16.7647 68.8941C15.5708 68.8954 14.6032 69.863 14.6021 71.0567V82.6725C14.6034 83.8664 15.571 84.834 16.7647 84.8351H46.6655C47.8594 84.8338 48.8268 83.8662 48.8281 82.6725V71.0567C48.8268 69.8628 47.8592 68.8954 46.6655 68.8941H16.7647Z" fill="#1E2E36"/>
<path d="M10.0955 87.1791H4.50643C2.01875 87.1764 0.00287163 85.1603 0 82.6726V60.4356C0.00287163 57.948 2.01875 55.9319 4.50643 55.9292H10.0953C12.583 55.9321 14.599 57.948 14.6017 60.4356V82.6726C14.599 85.1603 12.5831 87.1764 10.0955 87.1791ZM4.50643 58.273C3.31251 58.2743 2.34511 59.2417 2.34375 60.4356V82.6726C2.34511 83.8666 3.31267 84.834 4.50643 84.8353H10.0953C11.2892 84.834 12.2566 83.8664 12.258 82.6726V60.4356C12.2566 59.2417 11.2892 58.2741 10.0953 58.273H4.50643Z" fill="#1E2E36"/>
<path d="M86.5699 78.0366H13.4301C12.783 78.0366 12.2583 77.5119 12.2583 76.8648C12.2583 76.2176 12.783 75.6928 13.4301 75.6928H86.5701C87.2172 75.6928 87.7419 76.2175 87.7419 76.8648C87.7419 77.5121 87.2172 78.0366 86.5699 78.0366Z" fill="#1E2E36"/>
<path d="M46.6655 68.894H16.7647C14.2771 68.8911 12.261 66.8753 12.2583 64.3876V46.5406C12.2612 44.0529 14.2771 42.0369 16.7647 42.0342H46.6655C49.1531 42.0371 51.1692 44.0529 51.1719 46.5406V64.3876C51.169 66.8753 49.1531 68.8913 46.6655 68.894ZM16.7647 44.3778C15.5708 44.3791 14.6032 45.3465 14.6021 46.5404V64.3874C14.6034 65.5813 15.571 66.5489 16.7647 66.5501H46.6655C47.8594 66.5487 48.8268 65.5812 48.8281 64.3874V46.5406C48.8268 45.3467 47.8592 44.3791 46.6655 44.3779L16.7647 44.3778Z" fill="#1E2E36"/>
<path d="M83.2353 68.894H53.3345C50.8469 68.8911 48.8308 66.8753 48.8281 64.3876V46.5406C48.831 44.0529 50.8469 42.0369 53.3345 42.0342H83.2353C85.723 42.0371 87.739 44.0529 87.7417 46.5406V64.3876C87.739 66.8753 85.7231 68.8913 83.2353 68.894ZM53.3345 44.3778C52.1406 44.3791 51.1731 45.3467 51.1719 46.5404V64.3874C51.1732 65.5813 52.1408 66.5487 53.3345 66.5501H83.2353C84.4292 66.5487 85.3968 65.5812 85.398 64.3874V46.5406C85.3966 45.3467 84.429 44.3791 83.2353 44.3779L53.3345 44.3778Z" fill="#1E2E36"/>
<path d="M83.2353 87.1791H53.3345C50.8469 87.1762 48.8308 85.1603 48.8281 82.6726V71.0569C48.831 68.5692 50.8469 66.5532 53.3345 66.5505H83.2353C85.723 66.5533 87.739 68.5692 87.7417 71.0569V82.6726C87.739 85.1603 85.7231 87.1764 83.2353 87.1791ZM53.3345 68.8941C52.1406 68.8954 51.1732 69.863 51.1719 71.0567V82.6725C51.1732 83.8664 52.1408 84.8338 53.3345 84.8351H83.2353C84.4292 84.8338 85.3968 83.8662 85.398 82.6725V71.0567C85.3966 69.8628 84.429 68.8952 83.2353 68.8941H53.3345Z" fill="#1E2E36"/>
<path d="M95.4935 87.1791H89.9047C87.417 87.1762 85.401 85.1603 85.3983 82.6726V60.4356C85.4011 57.948 87.417 55.9319 89.9047 55.9292H95.4935C97.9812 55.9321 99.9973 57.948 100 60.4356V82.6726C99.9971 85.1603 97.9812 87.1764 95.4935 87.1791ZM89.9045 58.273C88.7106 58.2743 87.7432 59.2417 87.7418 60.4356V82.6726C87.7432 83.8666 88.7108 84.834 89.9045 84.8353H95.4934C96.6873 84.834 97.6549 83.8664 97.656 82.6725V60.4356C97.6547 59.2417 96.6873 58.2741 95.4934 58.273H89.9045Z" fill="#1E2E36"/>
<path d="M52.7396 68.8939H47.2604C46.6133 68.8939 46.0886 68.3693 46.0886 67.7221C46.0886 67.075 46.6133 66.5502 47.2604 66.5502H52.7396C53.3868 66.5502 53.9116 67.0748 53.9116 67.7221C53.9116 68.3694 53.3868 68.8939 52.7396 68.8939Z" fill="#1E2E36"/>
<path d="M71.4504 38.6387H28.5495C27.9024 38.6387 27.3777 38.1141 27.3777 37.4668V9.62467C27.3777 8.97754 27.9024 8.45288 28.5495 8.45288H71.4504C72.0976 8.45288 72.6222 8.97754 72.6222 9.62467V37.4668C72.6222 38.1139 72.0976 38.6387 71.4504 38.6387ZM29.7215 36.295H70.2787V10.7965H29.7215V36.295Z" fill="#1E2E36"/>
<path d="M67.5469 34.7351H32.4531C31.806 34.7351 31.2813 34.2104 31.2813 33.5631V13.5283C31.2813 12.8812 31.806 12.3565 32.4531 12.3565H67.5469C68.1942 12.3565 68.7189 12.8812 68.7189 13.5283V33.5631C68.7187 34.2104 68.194 34.7351 67.5469 34.7351ZM33.6251 32.3913H66.3751V14.7003H33.6251V32.3913Z" fill="#1E2E36"/>
<path d="M36.6535 30.4398C36.0063 30.4398 35.4815 29.9151 35.4815 29.268C35.4815 28.9572 35.605 28.659 35.8247 28.4393L41.8511 22.4127C42.3087 21.9551 43.0508 21.9551 43.5084 22.4127L47.1655 26.0697C47.6231 26.5273 47.6231 27.2693 47.1655 27.7269C46.7079 28.1845 45.9658 28.1845 45.5082 27.7269L42.6798 24.8987L37.482 30.0965C37.2626 30.3166 36.9643 30.4401 36.6535 30.4398Z" fill="#1E2E36"/>
<path d="M63.3461 30.3798C63.0352 30.3801 62.7369 30.2566 62.5175 30.0365C61.0915 28.6105 59.6655 27.1838 58.2395 25.7564C56.6337 24.1527 55.0292 22.5482 53.4259 20.9428L52.6742 20.1916C52.4374 19.9549 52.2006 19.7183 51.9638 19.4816L45.4418 26.0036C44.9842 26.4612 44.2421 26.4612 43.7845 26.0036C43.3269 25.546 43.3269 24.8039 43.7845 24.3463L51.1356 16.9953C51.3553 16.7755 51.6535 16.652 51.9643 16.652H51.9651C52.2763 16.6522 52.5744 16.7762 52.7942 16.9965C53.3057 17.5093 53.8178 18.0218 54.331 18.5338L55.0839 19.2862C56.6866 20.8909 58.291 22.4953 59.8971 24.0993C61.3217 25.526 62.7477 26.9527 64.1751 28.3794C64.6327 28.837 64.6327 29.5791 64.1751 30.0367C63.9548 30.2563 63.6569 30.3798 63.3461 30.3798Z" fill="#1E2E36"/>
<path d="M59.0689 26.1002C58.7582 26.1002 58.4602 25.977 58.2405 25.7574C56.6334 24.1525 55.0285 22.5476 53.4256 20.9426C53.092 20.6086 52.9913 20.1069 53.1704 19.6701C54.1886 17.1854 57.0282 15.9968 59.5128 17.0148C61.9974 18.0331 63.1861 20.8726 62.168 23.3573C61.6743 24.5622 60.7177 25.5187 59.5128 26.0125C59.3721 26.0704 59.2212 26.1002 59.0689 26.1002ZM55.7177 19.9209C56.8981 21.1025 58.0797 22.2839 59.2624 23.4657C60.3398 22.5853 60.4994 20.9983 59.619 19.9209C58.7386 18.8436 57.1516 18.6839 56.0743 19.5643C55.9439 19.6709 55.8243 19.7904 55.7177 19.9209Z" fill="#1E2E36"/>
<path d="M92.699 91.5471C91.2829 91.5488 90.0485 90.5844 89.7074 89.2101L88.9794 86.2907C88.8228 85.6626 89.2049 85.0267 89.8329 84.8701C89.9257 84.8469 90.0209 84.8353 90.1165 84.8353H95.2814C95.9285 84.8353 96.4534 85.3599 96.4534 86.0071C96.4534 86.1027 96.4417 86.1979 96.4186 86.2907L95.6905 89.2101C95.3495 90.5844 94.115 91.549 92.699 91.5471ZM91.6165 87.179L91.9816 88.6429C92.0804 89.039 92.4816 89.2802 92.8779 89.1814C93.1431 89.1152 93.3502 88.9081 93.4164 88.6429L93.7814 87.1789L91.6165 87.179Z" fill="#1E2E36"/>
<path d="M7.30102 91.5471C5.88497 91.5488 4.65051 90.5844 4.30946 89.2101L3.58142 86.2907C3.42483 85.6626 3.80693 85.0267 4.43497 84.8701C4.52771 84.8469 4.62298 84.8353 4.71859 84.8353H9.88346C10.5306 84.8353 11.0554 85.3599 11.0554 86.0071C11.0554 86.1027 11.0438 86.1979 11.0206 86.2907L10.2926 89.2101C9.95136 90.5844 8.7169 91.549 7.30102 91.5471ZM6.21859 87.179L6.58362 88.6429C6.68244 89.039 7.08362 89.2802 7.47991 89.1814C7.74511 89.1152 7.95221 88.9081 8.01842 88.6429L8.38346 87.1789L6.21859 87.179Z" fill="#1E2E36"/>
</svg>
