<svg width="30" height="31" viewBox="0 0 30 31" fill="none" xmlns="http://www.w3.org/2000/svg">
<g clip-path="url(#clip0)">
<path fill-rule="evenodd" clip-rule="evenodd" d="M11.2501 26.4375C11.0775 26.4375 10.9376 26.5774 10.9376 26.75C10.9376 26.9226 11.0775 27.0625 11.2501 27.0625C11.4227 27.0625 11.5626 26.9226 11.5626 26.75C11.5626 26.5774 11.4227 26.4375 11.2501 26.4375ZM9.06259 26.75C9.06259 25.5419 10.042 24.5625 11.2501 24.5625C12.4582 24.5625 13.4376 25.5419 13.4376 26.75C13.4376 27.9581 12.4582 28.9375 11.2501 28.9375C10.042 28.9375 9.06259 27.9581 9.06259 26.75Z" fill="#1E2E36"/>
<path fill-rule="evenodd" clip-rule="evenodd" d="M25.0001 26.4375C24.8275 26.4375 24.6876 26.5774 24.6876 26.75C24.6876 26.9226 24.8275 27.0625 25.0001 27.0625C25.1727 27.0625 25.3126 26.9226 25.3126 26.75C25.3126 26.5774 25.1727 26.4375 25.0001 26.4375ZM22.8126 26.75C22.8126 25.5419 23.792 24.5625 25.0001 24.5625C26.2082 24.5625 27.1876 25.5419 27.1876 26.75C27.1876 27.9581 26.2082 28.9375 25.0001 28.9375C23.792 28.9375 22.8126 27.9581 22.8126 26.75Z" fill="#1E2E36"/>
<path fill-rule="evenodd" clip-rule="evenodd" d="M0.312653 1.75C0.312653 1.23223 0.732385 0.8125 1.25015 0.8125H6.25015C6.69699 0.8125 7.08173 1.12786 7.16942 1.56601L8.26954 7.0625H28.7502C29.0295 7.0625 29.2944 7.18713 29.4725 7.4024C29.6507 7.61768 29.7234 7.90116 29.671 8.17563L27.6698 18.6701C27.5125 19.4615 27.082 20.1723 26.4537 20.6781C25.8277 21.182 25.045 21.4506 24.2419 21.4375H12.1085C11.3052 21.4506 10.5226 21.182 9.89672 20.6781C9.26857 20.1725 8.83819 19.4621 8.68084 18.6713L6.59084 8.2291C6.58355 8.20006 6.57762 8.17049 6.5731 8.14044L5.4817 2.6875H1.25015C0.732385 2.6875 0.312653 2.26776 0.312653 1.75ZM8.64482 8.9375L10.5197 18.3049C10.5911 18.6645 10.7868 18.9876 11.0725 19.2176C11.3581 19.4475 11.7156 19.5698 12.0822 19.5626L12.1002 19.5625H24.2502L24.2682 19.5626C24.6348 19.5698 24.9922 19.4475 25.2779 19.2176C25.5627 18.9883 25.758 18.6664 25.83 18.3079L25.8307 18.3049L27.617 8.9375H8.64482Z" fill="#1E2E36"/>
</g>
<defs>
<clipPath id="clip0">
<rect width="30" height="30" fill="white" transform="translate(0.00012207 0.5)"/>
</clipPath>
</defs>
</svg>
