<svg width="40" height="40" viewBox="0 0 40 40" fill="none" xmlns="http://www.w3.org/2000/svg">
<path fill-rule="evenodd" clip-rule="evenodd" d="M16.6736 24.0686L16.6732 24.0683L16.6737 24.0679L16.6737 24.0678L16.6738 24.0678L25.9473 15.6992C26.3543 15.3379 25.8584 15.1618 25.3181 15.4894L13.8726 22.7103L8.92879 21.1672C7.86114 20.8403 7.85347 20.1067 9.16849 19.5792L28.4335 12.1507C29.3134 11.7512 30.1626 12.362 29.8267 13.7087L26.5459 29.1692C26.3168 30.2679 25.653 30.5306 24.7332 30.0232L19.7355 26.3308L17.3334 28.6666C17.3258 28.674 17.3182 28.6813 17.3107 28.6886C17.0421 28.9502 16.8198 29.1666 16.3334 29.1666L16.6736 24.0686Z" fill="#1E2E36"/>
</svg>
