<svg width="100" height="100" viewBox="0 0 100 100" fill="none" xmlns="http://www.w3.org/2000/svg">
<path d="M93.5451 42.0746H6.4549C5.80777 42.0746 5.28311 41.5499 5.28311 40.9028V15.4306C5.28311 14.7835 5.80777 14.2589 6.4549 14.2589H93.5451C94.1922 14.2589 94.717 14.7835 94.717 15.4306V40.9026C94.7169 41.5499 94.1922 42.0746 93.5451 42.0746ZM7.62687 39.7309H92.3733V16.6026H7.62687V39.7309Z" fill="#1E2E36"/>
<path d="M93.5451 67.5466H6.4549C5.80777 67.5466 5.28311 67.022 5.28311 66.3747V40.9027C5.28311 40.2555 5.80777 39.7307 6.4549 39.7307H93.5451C94.1922 39.7307 94.717 40.2554 94.717 40.9027V66.3747C94.7169 67.022 94.1922 67.5466 93.5451 67.5466ZM7.62687 65.2029H92.3733V42.0746H7.62687V65.2029Z" fill="#1E2E36"/>
<path d="M93.5451 93.0187H6.4549C5.80777 93.0187 5.28311 92.494 5.28311 91.8467V66.3749C5.28311 65.7278 5.80777 65.2029 6.4549 65.2029H93.5451C94.1922 65.2029 94.717 65.7276 94.717 66.3749V91.8469C94.7169 92.494 94.1922 93.0187 93.5451 93.0187ZM7.62687 90.6749H92.3733V67.5467H7.62687V90.6749Z" fill="#1E2E36"/>
<path d="M52.1919 29.3387H47.8081C47.161 29.3387 46.6361 28.814 46.6361 28.1669C46.6361 27.5198 47.1608 26.9949 47.8081 26.9949H52.1919C52.839 26.9949 53.3639 27.5196 53.3639 28.1669C53.3639 28.8142 52.839 29.3387 52.1919 29.3387Z" fill="#1E2E36"/>
<path d="M52.1919 54.8107H47.8081C47.161 54.8107 46.6361 54.286 46.6361 53.6387C46.6361 52.9914 47.1608 52.4667 47.8081 52.4667H52.1919C52.839 52.4667 53.3639 52.9914 53.3639 53.6387C53.3639 54.286 52.839 54.8107 52.1919 54.8107Z" fill="#1E2E36"/>
<path d="M52.1919 80.2827H47.8081C47.161 80.2827 46.6361 79.7581 46.6361 79.1108C46.6361 78.4635 47.1608 77.939 47.8081 77.939H52.1919C52.839 77.939 53.3639 78.4636 53.3639 79.1108C53.3639 79.7579 52.839 80.2827 52.1919 80.2827Z" fill="#1E2E36"/>
<path d="M96.875 16.6027H3.12501C1.4 16.6006 0.00202703 15.2027 0 13.4777V10.1062C0.00202703 8.3812 1.4 6.98323 3.12501 6.9812H96.875C98.6 6.98323 99.998 8.3812 100 10.1062V13.4777C99.998 15.2027 98.6 16.6006 96.875 16.6027ZM3.12501 9.32496C2.69375 9.32546 2.34426 9.67496 2.34375 10.1062V13.4777C2.34426 13.9089 2.69375 14.2584 3.12501 14.2589H96.875C97.3062 14.2584 97.6557 13.9089 97.6562 13.4777V10.1062C97.6557 9.67496 97.3062 9.32546 96.875 9.32496H3.12501Z" fill="#1E2E36"/>
</svg>
