<svg width="100" height="100" viewBox="0 0 100 100" fill="none" xmlns="http://www.w3.org/2000/svg">
<path d="M82.765 100H17.235C16.5878 100 16.0632 99.4753 16.0632 98.828V1.17179C16.0632 0.524663 16.5878 0 17.235 0H82.765C83.4121 0 83.9369 0.524663 83.9369 1.17179V98.828C83.9368 99.4753 83.4121 100 82.765 100ZM18.4069 97.6562H81.593V2.34375H18.4069V97.6562Z" fill="#1E2E36"/>
<path d="M49.9999 71.4942C49.3528 71.4942 48.8279 71.119 48.8279 70.6564V0.837839C48.8279 0.37517 49.3526 0 49.9999 0C50.6472 0 51.1717 0.37517 51.1717 0.837839V70.6562C51.1719 71.1189 50.6472 71.4942 49.9999 71.4942Z" fill="#1E2E36"/>
<path d="M49.9999 100H17.235C16.5878 100 16.0632 99.4753 16.0632 98.828V84.5751C16.0632 83.928 16.5878 83.4033 17.235 83.4033H49.9999C50.647 83.4033 51.1717 83.928 51.1717 84.5751V98.828C51.1718 99.4753 50.6472 100 49.9999 100ZM18.4069 97.6562H48.8281V85.7471H18.4069V97.6562Z" fill="#1E2E36"/>
<path d="M49.9999 85.7472H17.235C16.5878 85.7472 16.0632 85.2225 16.0632 84.5752V70.3224C16.0632 69.6752 16.5878 69.1504 17.235 69.1504H49.9999C50.647 69.1504 51.1717 69.6751 51.1717 70.3224V84.5752C51.1718 85.2225 50.6472 85.7472 49.9999 85.7472ZM18.4068 83.4035H48.8279V71.4943H18.4069L18.4068 83.4035Z" fill="#1E2E36"/>
<path d="M35.2668 78.6205H31.9681C31.321 78.6205 30.7963 78.0959 30.7963 77.4488C30.7963 76.8016 31.321 76.2768 31.9681 76.2768H35.2668C35.9139 76.2768 36.4386 76.8015 36.4386 77.4488C36.4386 78.096 35.9139 78.6205 35.2668 78.6205Z" fill="#1E2E36"/>
<path d="M43.0938 38.3538C42.4466 38.3538 41.9218 37.8291 41.9218 37.182V34.3122C41.9218 33.6651 42.4465 33.1404 43.0938 33.1404C43.7411 33.1404 44.2656 33.6651 44.2656 34.3122V37.182C44.2656 37.8291 43.7409 38.3538 43.0938 38.3538Z" fill="#1E2E36"/>
<path d="M56.9061 52.6069C56.259 52.6069 55.7343 52.0823 55.7343 51.435V48.5652C55.7343 47.9181 56.259 47.3932 56.9061 47.3932C57.5533 47.3932 58.0781 47.9179 58.0781 48.5652V51.435C58.0781 52.0823 57.5534 52.6069 56.9061 52.6069Z" fill="#1E2E36"/>
<path d="M35.2668 92.8737H31.9681C31.321 92.8737 30.7963 92.349 30.7963 91.7019C30.7963 91.0547 31.321 90.5299 31.9681 90.5299H35.2668C35.9139 90.5299 36.4386 91.0546 36.4386 91.7019C36.4386 92.3492 35.9139 92.8737 35.2668 92.8737Z" fill="#1E2E36"/>
</svg>
